<svg xmlns="http://www.w3.org/2000/svg" viewBox="0 0 192.18 56.66">
	<g id="Layer_2" data-name="Layer 2">
		<g id="Vrstva_1" data-name="Vrstva 1">
			<polygon points="0 44.42 0 9.67 19.87 9.67 19.87 17.16 7.84 17.16 7.84 44.42 0 44.42" fill="#fff"></polygon>
			<rect x="25.6" y="9.67" width="7.84" height="34.75" fill="#fff"></rect>
			<path fill="#fff" d="M45.33,56.66V49.18H66.76V38.27l-.61.72c-2.16,2.57-6.39,4.29-10.53,4.29-9.36,0-16.69-7.55-16.69-17.2S46.26,9,55.62,9c4.17,0,8.4,1.74,10.52,4.33l.62.75V9.67H74.6v47ZM57.26,16c-6,0-10.57,4.32-10.57,10.06s4.55,10.14,10.57,10.14a11.48,11.48,0,0,0,9.45-4.92l0,0,0-.09V21l0,0A11.48,11.48,0,0,0,57.26,16Z"></path>
			<path fill="#fff" d="M92.08,45.13c-6.58,0-11.36-4.3-11.36-10.22,0-7.31,6.45-11.86,16.84-11.86h5.16v-.67c0-4.25-2.92-7-7.44-7-4,0-7,2.52-7.22,6H81C81.59,14.4,87.86,9,95.28,9c9.3,0,14.85,5.2,14.85,13.92V44.42h-7.41v-4.6l-.63.82A12.5,12.5,0,0,1,92.08,45.13ZM97.2,29c-7.67,0-9.28,2.77-9.28,5.09,0,2.7,2.3,4.51,5.72,4.51a11.12,11.12,0,0,0,9-5.13l0,0,0-.1V29Z"></path>
			<path fill="#fff" d="M142.28,44.42V25.87c0-5.59-3.15-9.07-8.21-9.07a10.36,10.36,0,0,0-8.74,4.78l0,0,0,.09V44.42h-7.84V9.67h7.84v4.68l.62-.79A12.77,12.77,0,0,1,136,9c8.63,0,14.2,6.13,14.2,15.63V44.42Z"></path>
			<polygon fill="#fff" points="177.66 44.42 177.66 36.93 168.55 36.93 168.55 17.16 177.66 17.16 177.66 9.67 168.55 9.67 168.55 0 160.73 0 160.73 9.67 154.11 9.67 154.11 17.16 160.73 17.16 160.73 44.42 177.66 44.42"></polygon>
			<rect fill="#fff" x="184.34" y="9.67" width="7.84" height="34.75"></rect>
		</g>
	</g>
</svg>