<svg width="655" height="258" viewBox="0 0 655 258" fill="none" xmlns="http://www.w3.org/2000/svg">
<path d="M150.153 100V6.90909H169.835V83.7727H209.744V100H150.153Z" fill="white"/>
<path d="M267.188 70.2727V30.1818H286.551V100H267.96V87.3182H267.233C265.657 91.4091 263.036 94.697 259.369 97.1818C255.733 99.6667 251.294 100.909 246.051 100.909C241.384 100.909 237.278 99.8485 233.733 97.7273C230.188 95.6061 227.415 92.5909 225.415 88.6818C223.445 84.7727 222.445 80.0909 222.415 74.6364V30.1818H241.778V71.1818C241.809 75.303 242.915 78.5606 245.097 80.9545C247.278 83.3485 250.203 84.5455 253.869 84.5455C256.203 84.5455 258.384 84.0152 260.415 82.9545C262.445 81.8636 264.081 80.2576 265.324 78.1364C266.597 76.0151 267.218 73.3939 267.188 70.2727Z" fill="white"/>
<path d="M319.585 79.9091L319.631 56.6818H322.449L344.812 30.1818H367.04L336.994 65.2727H332.403L319.585 79.9091ZM302.04 100V6.90909H321.403V100H302.04ZM345.676 100L325.131 69.5909L338.04 55.9091L368.358 100H345.676Z" fill="white"/>
<path d="M396.449 101.318C391.994 101.318 388.025 100.545 384.54 99C381.055 97.4242 378.297 95.1061 376.267 92.0455C374.267 88.9545 373.267 85.1061 373.267 80.5C373.267 76.6212 373.979 73.3636 375.403 70.7273C376.828 68.0909 378.767 65.9697 381.222 64.3636C383.676 62.7576 386.464 61.5455 389.585 60.7273C392.737 59.9091 396.04 59.3333 399.494 59C403.555 58.5758 406.828 58.1818 409.312 57.8182C411.797 57.4242 413.6 56.8485 414.722 56.0909C415.843 55.3333 416.403 54.2121 416.403 52.7273V52.4545C416.403 49.5758 415.494 47.3485 413.676 45.7727C411.888 44.197 409.343 43.4091 406.04 43.4091C402.555 43.4091 399.782 44.1818 397.722 45.7273C395.661 47.2424 394.297 49.1515 393.631 51.4545L375.722 50C376.631 45.7576 378.419 42.0909 381.085 39C383.752 35.8788 387.191 33.4848 391.403 31.8182C395.646 30.1212 400.555 29.2727 406.131 29.2727C410.009 29.2727 413.722 29.7273 417.267 30.6364C420.843 31.5455 424.009 32.9545 426.767 34.8636C429.555 36.7727 431.752 39.2273 433.358 42.2273C434.964 45.197 435.767 48.7576 435.767 52.9091V100H417.403V90.3182H416.858C415.737 92.5 414.237 94.4242 412.358 96.0909C410.479 97.7273 408.222 99.0152 405.585 99.9545C402.949 100.864 399.903 101.318 396.449 101.318ZM401.994 87.9545C404.843 87.9545 407.358 87.3939 409.54 86.2727C411.722 85.1212 413.434 83.5758 414.676 81.6364C415.919 79.697 416.54 77.5 416.54 75.0455V67.6364C415.934 68.0303 415.1 68.3939 414.04 68.7273C413.009 69.0303 411.843 69.3182 410.54 69.5909C409.237 69.8333 407.934 70.0606 406.631 70.2727C405.328 70.4545 404.146 70.6212 403.085 70.7727C400.813 71.1061 398.828 71.6364 397.131 72.3636C395.434 73.0909 394.116 74.0758 393.176 75.3182C392.237 76.5303 391.767 78.0454 391.767 79.8636C391.767 82.5 392.722 84.5151 394.631 85.9091C396.57 87.2727 399.025 87.9545 401.994 87.9545ZM399.903 21.1818L409.54 0.5H427.449L413.585 21.1818H399.903Z" fill="white"/>
<path d="M508.881 50.0909L491.153 51.1818C490.85 49.6667 490.199 48.303 489.199 47.0909C488.199 45.8485 486.881 44.8636 485.244 44.1364C483.638 43.3788 481.714 43 479.472 43C476.472 43 473.941 43.6364 471.881 44.9091C469.82 46.1515 468.79 47.8182 468.79 49.9091C468.79 51.5758 469.456 52.9848 470.79 54.1364C472.123 55.2879 474.411 56.2121 477.653 56.9091L490.29 59.4545C497.078 60.8485 502.138 63.0909 505.472 66.1818C508.805 69.2727 510.472 73.3333 510.472 78.3636C510.472 82.9394 509.123 86.9545 506.426 90.4091C503.759 93.8636 500.093 96.5606 495.426 98.5C490.79 100.409 485.441 101.364 479.381 101.364C470.138 101.364 462.775 99.4394 457.29 95.5909C451.835 91.7121 448.638 86.4394 447.699 79.7727L466.744 78.7727C467.32 81.5909 468.714 83.7424 470.926 85.2273C473.138 86.6818 475.972 87.4091 479.426 87.4091C482.82 87.4091 485.547 86.7576 487.608 85.4545C489.699 84.1212 490.759 82.4091 490.79 80.3182C490.759 78.5606 490.017 77.1212 488.562 76C487.108 74.8485 484.866 73.9697 481.835 73.3636L469.744 70.9545C462.926 69.5909 457.85 67.2273 454.517 63.8636C451.214 60.5 449.562 56.2121 449.562 51C449.562 46.5151 450.775 42.6515 453.199 39.4091C455.653 36.1667 459.093 33.6667 463.517 31.9091C467.972 30.1515 473.184 29.2727 479.153 29.2727C487.972 29.2727 494.911 31.1364 499.972 34.8636C505.062 38.5909 508.032 43.6667 508.881 50.0909ZM470.426 1.18182L479.562 12.2727L488.699 1.18182H505.199V1.81818L486.744 21.8182H472.335L453.926 1.81818V1.18182H470.426Z" fill="white"/>
<path d="M222.29 170.5H202.381C202.017 167.924 201.275 165.636 200.153 163.636C199.032 161.606 197.593 159.879 195.835 158.455C194.078 157.03 192.047 155.939 189.744 155.182C187.472 154.424 185.002 154.045 182.335 154.045C177.517 154.045 173.32 155.242 169.744 157.636C166.169 160 163.396 163.455 161.426 168C159.456 172.515 158.472 178 158.472 184.455C158.472 191.091 159.456 196.667 161.426 201.182C163.426 205.697 166.214 209.106 169.79 211.409C173.366 213.712 177.502 214.864 182.199 214.864C184.835 214.864 187.275 214.515 189.517 213.818C191.79 213.121 193.805 212.106 195.562 210.773C197.32 209.409 198.775 207.758 199.926 205.818C201.108 203.879 201.926 201.667 202.381 199.182L222.29 199.273C221.775 203.545 220.487 207.667 218.426 211.636C216.396 215.576 213.653 219.106 210.199 222.227C206.775 225.318 202.684 227.773 197.926 229.591C193.199 231.379 187.85 232.273 181.881 232.273C173.578 232.273 166.153 230.394 159.608 226.636C153.093 222.879 147.941 217.439 144.153 210.318C140.396 203.197 138.517 194.576 138.517 184.455C138.517 174.303 140.426 165.667 144.244 158.545C148.063 151.424 153.244 146 159.79 142.273C166.335 138.515 173.699 136.636 181.881 136.636C187.275 136.636 192.275 137.394 196.881 138.909C201.517 140.424 205.623 142.636 209.199 145.545C212.775 148.424 215.684 151.955 217.926 156.136C220.199 160.318 221.653 165.106 222.29 170.5Z" fill="white"/>
<path d="M255.403 190.636V231H236.04V137.909H254.858V173.5H255.676C257.252 169.379 259.797 166.152 263.312 163.818C266.828 161.455 271.237 160.273 276.54 160.273C281.388 160.273 285.616 161.333 289.222 163.455C292.858 165.545 295.676 168.561 297.676 172.5C299.706 176.409 300.706 181.091 300.676 186.545V231H281.312V190C281.343 185.697 280.252 182.348 278.04 179.955C275.858 177.561 272.797 176.364 268.858 176.364C266.222 176.364 263.888 176.924 261.858 178.045C259.858 179.167 258.282 180.803 257.131 182.955C256.009 185.076 255.434 187.636 255.403 190.636Z" fill="white"/>
<path d="M325.369 257.182C322.915 257.182 320.612 256.985 318.46 256.591C316.339 256.227 314.581 255.758 313.188 255.182L317.551 240.727C319.824 241.424 321.869 241.803 323.688 241.864C325.536 241.924 327.127 241.5 328.46 240.591C329.824 239.682 330.93 238.136 331.778 235.955L332.915 233L307.869 161.182H328.233L342.688 212.455H343.415L358.006 161.182H378.506L351.369 238.545C350.066 242.303 348.294 245.576 346.051 248.364C343.839 251.182 341.036 253.348 337.642 254.864C334.248 256.409 330.157 257.182 325.369 257.182Z" fill="white"/>
<path d="M407.778 137.909V231H388.415V137.909H407.778Z" fill="white"/>
<path d="M423.29 231V161.182H442.653V231H423.29ZM426.062 152.182L435.699 131.5H453.608L439.744 152.182H426.062Z" fill="white"/>
<path d="M475.71 210.909L475.756 187.682H478.574L500.938 161.182H523.165L493.119 196.273H488.528L475.71 210.909ZM458.165 231V137.909H477.528V231H458.165ZM501.801 231L481.256 200.591L494.165 186.909L524.483 231H501.801Z" fill="white"/>
<path d="M0 140.173V98.8266L100 26V73.5723L31.5341 119.03L32.4574 116.563V122.437L31.5341 119.97L100 165.428V213L0 140.173Z" fill="#FFDB0F"/>
<path d="M655 140.173V98.8266L557 26V73.5723L624.097 119.03L623.192 116.563V122.437L624.097 119.97L557 165.428V213L655 140.173Z" fill="#FFDB0F"/>
</svg>
