<svg width="336" height="146" viewBox="0 0 336 146" fill="none" xmlns="http://www.w3.org/2000/svg">
<path d="M112.357 62.7329H335.667V145.44H112.357V62.7329Z" fill="#FFDB0F"/>
<path d="M236.024 3.09351V51.1794H283.044V3.09351H310.628V122.637H283.044V74.4949H236.024V122.637H208.383V3.09351H236.024Z" stroke="white" stroke-width="3"/>
<path d="M141.624 1.5C148.517 1.50004 154.936 2.46875 160.868 4.41992L161.981 4.7959C167.496 6.72976 172.428 9.45833 176.765 12.9854L177.624 13.6953C181.869 17.2934 185.351 21.6309 188.069 26.6963L188.342 27.207C191.133 32.5083 192.913 38.52 193.703 45.2197L193.901 46.8955H165.986L165.803 45.6045C165.37 42.5396 164.493 39.8574 163.192 37.5361L163.187 37.5273C161.956 35.2991 160.405 33.3919 158.53 31.7959L158.15 31.4805C156.101 29.8201 153.723 28.5382 151 27.6426L150.994 27.6406C148.318 26.7486 145.388 26.2949 142.193 26.2949C136.421 26.295 131.465 27.7248 127.264 30.5371L127.257 30.542C123.059 33.3169 119.761 37.3952 117.392 42.8613L117.391 42.8652C115.029 48.2797 113.817 54.93 113.817 62.8652C113.817 71.0309 115.03 77.7905 117.388 83.1992L117.615 83.7041C120 88.8784 123.237 92.7336 127.299 95.3496L127.696 95.6006C131.815 98.146 136.574 99.4355 142.022 99.4355C145.189 99.4355 148.092 99.0169 150.739 98.1943L150.744 98.1924L151.244 98.0342C153.728 97.2176 155.924 96.0768 157.846 94.6191C159.89 93.0308 161.582 91.1095 162.926 88.8457L162.93 88.8379L162.935 88.8311C164.309 86.5766 165.273 83.9836 165.813 81.0332L166.039 79.7979L167.295 79.8027L192.22 79.917L193.905 79.9248L193.702 81.5967C193.035 87.1314 191.368 92.4639 188.708 97.5869C186.08 102.686 182.533 107.246 178.082 111.268L178.081 111.269C173.643 115.274 168.358 118.439 162.247 120.774L162.242 120.776C156.127 123.089 149.247 124.23 141.624 124.23C130.994 124.23 121.437 121.823 112.993 116.976L112.99 116.974C104.573 112.119 97.9319 105.094 93.0676 95.9492L93.0647 95.9453C88.221 86.7658 85.8352 75.719 85.8352 62.8652C85.8352 49.9711 88.2606 38.9019 93.1838 29.7197L93.6487 28.8691C98.3498 20.4208 104.613 13.8544 112.438 9.21094L113.225 8.75293C121.664 3.90901 131.144 1.5 141.624 1.5Z" stroke="white" stroke-width="3"/>
<path d="M29.1406 3.09351V99.322H79.1045V122.637H1.5V3.09351H29.1406Z" stroke="white" stroke-width="3"/>
<mask id="mask0_6_157" style="mask-type:alpha" maskUnits="userSpaceOnUse" x="0" y="0" width="313" height="126">
<path d="M236.024 3.09351V51.1794H283.044V3.09351H310.628V122.637H283.044V74.4949H236.024V122.637H208.383V3.09351H236.024Z" fill="black" stroke="black" stroke-width="3"/>
<path d="M141.624 1.5C148.517 1.50004 154.936 2.46875 160.868 4.41992L161.981 4.7959C167.496 6.72976 172.428 9.45833 176.765 12.9854L177.624 13.6953C181.869 17.2934 185.351 21.6309 188.069 26.6963L188.342 27.207C191.133 32.5083 192.913 38.52 193.703 45.2197L193.901 46.8955H165.986L165.803 45.6045C165.37 42.5396 164.493 39.8574 163.192 37.5361L163.187 37.5273C161.956 35.2991 160.405 33.3919 158.53 31.7959L158.15 31.4805C156.101 29.8201 153.723 28.5382 151 27.6426L150.994 27.6406C148.318 26.7486 145.388 26.2949 142.193 26.2949C136.421 26.295 131.465 27.7248 127.264 30.5371L127.257 30.542C123.059 33.3169 119.761 37.3952 117.392 42.8613L117.391 42.8652C115.029 48.2797 113.817 54.93 113.817 62.8652C113.817 71.0309 115.03 77.7905 117.388 83.1992L117.615 83.7041C120 88.8784 123.237 92.7336 127.299 95.3496L127.696 95.6006C131.815 98.146 136.574 99.4355 142.022 99.4355C145.189 99.4355 148.092 99.0169 150.739 98.1943L150.744 98.1924L151.244 98.0342C153.728 97.2176 155.924 96.0768 157.846 94.6191C159.89 93.0308 161.582 91.1095 162.926 88.8457L162.93 88.8379L162.935 88.8311C164.309 86.5766 165.273 83.9836 165.813 81.0332L166.039 79.7979L167.295 79.8027L192.22 79.917L193.905 79.9248L193.702 81.5967C193.035 87.1314 191.368 92.4639 188.708 97.5869C186.08 102.686 182.533 107.246 178.082 111.268L178.081 111.269C173.643 115.274 168.358 118.439 162.247 120.774L162.242 120.776C156.127 123.089 149.247 124.23 141.624 124.23C130.994 124.23 121.437 121.823 112.993 116.976L112.99 116.974C104.573 112.119 97.9319 105.094 93.0676 95.9492L93.0647 95.9453C88.221 86.7658 85.8352 75.719 85.8352 62.8652C85.8352 49.9711 88.2606 38.9019 93.1838 29.7197L93.6487 28.8691C98.3498 20.4208 104.613 13.8544 112.438 9.21094L113.225 8.75293C121.664 3.90901 131.144 1.5 141.624 1.5Z" fill="black" stroke="black" stroke-width="3"/>
<path d="M29.1406 3.09351V99.322H79.1045V122.637H1.5V3.09351H29.1406Z" fill="black" stroke="black" stroke-width="3"/>
</mask>
<g mask="url(#mask0_6_157)">
<path d="M112.357 62.7329H335.667V145.44H112.357V62.7329Z" fill="black"/>
</g>
<mask id="mask1_6_157" style="mask-type:alpha" maskUnits="userSpaceOnUse" x="0" y="0" width="313" height="126">
<path d="M236.024 3.09351V51.1794H283.044V3.09351H310.628V122.637H283.044V74.4949H236.024V122.637H208.383V3.09351H236.024Z" stroke="#FFDB0F" stroke-width="3"/>
<path d="M141.624 1.5C148.517 1.50004 154.936 2.46875 160.868 4.41992L161.981 4.7959C167.496 6.72976 172.428 9.45833 176.765 12.9854L177.624 13.6953C181.869 17.2934 185.351 21.6309 188.069 26.6963L188.342 27.207C191.133 32.5083 192.913 38.52 193.703 45.2197L193.901 46.8955H165.986L165.803 45.6045C165.37 42.5396 164.493 39.8574 163.192 37.5361L163.187 37.5273C161.956 35.2991 160.405 33.3919 158.53 31.7959L158.15 31.4805C156.101 29.8201 153.723 28.5382 151 27.6426L150.994 27.6406C148.318 26.7486 145.388 26.2949 142.193 26.2949C136.421 26.295 131.465 27.7248 127.264 30.5371L127.257 30.542C123.059 33.3169 119.761 37.3952 117.392 42.8613L117.391 42.8652C115.029 48.2797 113.817 54.93 113.817 62.8652C113.817 71.0309 115.03 77.7905 117.388 83.1992L117.615 83.7041C120 88.8784 123.237 92.7336 127.299 95.3496L127.696 95.6006C131.815 98.146 136.574 99.4355 142.022 99.4355C145.189 99.4355 148.092 99.0169 150.739 98.1943L150.744 98.1924L151.244 98.0342C153.728 97.2176 155.924 96.0768 157.846 94.6191C159.89 93.0308 161.582 91.1095 162.926 88.8457L162.93 88.8379L162.935 88.8311C164.309 86.5766 165.273 83.9836 165.813 81.0332L166.039 79.7979L167.295 79.8027L192.22 79.917L193.905 79.9248L193.702 81.5967C193.035 87.1314 191.368 92.4639 188.708 97.5869C186.08 102.686 182.533 107.246 178.082 111.268L178.081 111.269C173.643 115.274 168.358 118.439 162.247 120.774L162.242 120.776C156.127 123.089 149.247 124.23 141.624 124.23C130.994 124.23 121.437 121.823 112.993 116.976L112.99 116.974C104.573 112.119 97.9319 105.094 93.0676 95.9492L93.0647 95.9453C88.221 86.7658 85.8352 75.719 85.8352 62.8652C85.8352 49.9711 88.2606 38.9019 93.1838 29.7197L93.6487 28.8691C98.3498 20.4208 104.613 13.8544 112.438 9.21094L113.225 8.75293C121.664 3.90901 131.144 1.5 141.624 1.5Z" stroke="#FFDB0F" stroke-width="3"/>
<path d="M29.1406 3.09351V99.322H79.1045V122.637H1.5V3.09351H29.1406Z" stroke="#FFDB0F" stroke-width="3"/>
</mask>
<g mask="url(#mask1_6_157)">
<path d="M112.357 62.7329H335.667V145.44H112.357V62.7329Z" fill="#FFDB0F"/>
</g>
</svg>
