<svg xmlns="http://www.w3.org/2000/svg" version="1.1" xmlns:xlink="http://www.w3.org/1999/xlink" width="603" height="600"><svg width="603" height="600" viewBox="0 0 603 600" fill="none" xmlns="http://www.w3.org/2000/svg">
<rect width="603" height="600" fill="black"></rect>
<path d="M425.792 207V282.453H501.281V207H542.857V392.874H501.281V317.331H425.792V392.874H384.128V207H425.792Z" fill="#FFDB0F" stroke="#FFDB0F" stroke-width="3"></path>
<path d="M278.52 204.5C289.257 204.5 299.238 206.008 308.453 209.039L309.319 209.327C318.236 212.347 326.177 216.68 333.126 222.333L333.796 222.88C340.674 228.562 346.292 235.47 350.648 243.591L351.071 244.382C355.395 252.596 358.162 261.926 359.392 272.349L359.589 274.025H317.489L317.306 272.734C316.614 267.833 315.208 263.521 313.108 259.775L313.103 259.766C311.123 256.181 308.623 253.107 305.6 250.534L304.989 250.026C301.687 247.351 297.862 245.292 293.499 243.857L293.494 243.855C289.198 242.423 284.508 241.699 279.413 241.699C270.208 241.699 262.262 243.982 255.513 248.5L255.505 248.505C248.76 252.964 243.486 259.504 239.714 268.209L239.712 268.213C235.947 276.845 234.034 287.403 234.034 299.938C234.034 312.832 235.948 323.564 239.709 332.19L240.073 332.994C243.872 341.237 249.05 347.421 255.58 351.627L256.216 352.029C262.828 356.115 270.455 358.175 279.145 358.175C284.191 358.175 288.831 357.508 293.076 356.189L293.082 356.187L293.883 355.932C297.863 354.623 301.395 352.792 304.491 350.443C307.787 347.884 310.516 344.785 312.68 341.14L312.684 341.132L312.689 341.125C314.905 337.489 316.452 333.32 317.316 328.599L317.541 327.362L318.798 327.368L357.909 327.547L359.593 327.555L359.391 329.227C358.357 337.806 355.771 346.075 351.643 354.026C347.568 361.932 342.068 369.008 335.156 375.253L335.155 375.254C328.277 381.462 320.077 386.376 310.576 390.007L310.571 390.009C301.087 393.596 290.396 395.374 278.52 395.374C261.974 395.374 247.127 391.628 234.019 384.103L234.016 384.102C220.956 376.569 210.645 365.669 203.082 351.45L203.08 351.445C195.559 337.192 191.834 320.003 191.833 299.938C191.833 279.81 195.619 262.587 203.262 248.331L203.986 247.008C211.294 233.874 221.018 223.684 233.159 216.48L234.38 215.769C247.484 208.247 262.21 204.5 278.52 204.5Z" fill="#FFDB0F" stroke="#FFDB0F" stroke-width="3"></path>
<path d="M101.164 207V357.996H179.564V392.874H59.5V207H101.164Z" fill="white" stroke="white" stroke-width="3"></path>
</svg><style>@media (prefers-color-scheme: light) { :root { filter: none; } }
@media (prefers-color-scheme: dark) { :root { filter: none; } }
</style></svg>