<?xml version="1.0" standalone="no"?>
<!DOCTYPE svg PUBLIC "-//W3C//DTD SVG 20010904//EN"
 "http://www.w3.org/TR/2001/REC-SVG-20010904/DTD/svg10.dtd">
<svg version="1.0" xmlns="http://www.w3.org/2000/svg"
 width="240.000000pt" height="240.000000pt" viewBox="0 0 240.000000 240.000000"
 preserveAspectRatio="xMidYMid meet">
<metadata>
Created by potrace 1.11, written by Peter Selinger 2001-2013
</metadata>
<g transform="translate(0.000000,240.000000) scale(0.100000,-0.100000)"
fill="#000000" stroke="none">
<path d="M0 1200 l0 -1200 1200 0 1200 0 0 1200 0 1200 -1200 0 -1200 0 0
-1200z m1270 589 c85 -46 110 -109 110 -276 l0 -113 -60 0 -60 0 0 74 c0 97
-16 176 -40 201 -16 16 -34 20 -80 20 -113 0 -120 -27 -120 -455 0 -428 7
-455 120 -455 46 0 64 4 80 20 26 26 40 105 40 221 l0 94 60 0 60 0 0 -132 c0
-73 -5 -149 -10 -169 -16 -56 -51 -101 -100 -129 -39 -22 -57 -25 -135 -25
-106 0 -160 22 -200 83 -42 64 -46 113 -43 524 l3 384 25 48 c44 86 111 118
231 113 56 -3 86 -10 119 -28z m-720 -489 l0 -500 125 0 125 0 0 -60 0 -60
-195 0 -195 0 0 560 0 560 70 0 70 0 0 -500z m1110 320 c0 -99 2 -180 5 -180
3 0 19 15 36 34 37 43 86 60 151 54 60 -6 96 -31 123 -84 19 -36 20 -62 23
-401 l3 -363 -60 0 -60 0 -3 344 -3 344 -24 26 c-46 49 -132 29 -169 -38 -15
-27 -17 -73 -20 -353 l-3 -323 -60 0 -59 0 0 560 0 560 60 0 60 0 0 -180z"/>
</g>
</svg>
